<?xml version="1.0" encoding="utf-8"?>
<!-- Generator: Adobe Illustrator 22.1.0, SVG Export Plug-In . SVG Version: 6.00 Build 0)  -->
<svg version="1.1" id="Capa_1" xmlns="http://www.w3.org/2000/svg" xmlns:xlink="http://www.w3.org/1999/xlink" x="0px" y="0px"
	 viewBox="0 0 512 512" style="enable-background:new 0 0 512 512;" xml:space="preserve">
<style type="text/css">
	.st0{fill:#D9E7EC;}
	.st1{fill:#C5D3DD;}
	.st2{fill:#9FACBA;}
	.st3{fill:#174550;}
	.st4{opacity:0.8;fill:#00FFFF;}
	.st5{fill:#00FFFF;}
</style>
<g>
	<path class="st0" d="M471,241V259c0,13.3-4.4,26.2-12.6,36.7c-19.1,24.7-42.7,45.8-69.5,62.1c-7,44-26,84-53.6,116.6
		c-25,8.1-51.7,12.6-79.4,12.6s-54.4-4.4-79.4-12.6c-27.5-32.6-46.5-72.6-53.6-116.6c-26.8-16.3-50.3-37.4-69.5-62.1
		C45.4,285.2,41,272.3,41,259V241c0-13.3,4.4-26.2,12.6-36.7c44.9-58,114.2-96.1,192.4-99.1V67.1c-7.3-3.7-12.2-11.2-12.2-19.9
		c0-12.3,10-22.2,22.2-22.2s22.2,10,22.2,22.2c0,8.7-5,16.2-12.2,19.9v38.1c78.3,3,147.5,41.1,192.4,99.1
		C466.6,214.8,471,227.7,471,241z"/>
	<path class="st1" d="M256,392c48.9,0,94.6-13.7,133.5-37.5c-1.3,9.1-3.1,18-5.5,26.7c-37.1,23.4-81,36.9-128,36.9
		c-24.6,0-48.4-3.7-70.8-10.6c-7.6-2.3-14.8,4.5-12.7,12.2c5.9,21.3,13.7,41.4,23.1,60.2c-6.5-1.6-12.8-3.4-19.1-5.4
		c-27.5-32.6-46.5-72.6-53.6-116.6c-26.8-16.3-50.3-37.4-69.5-62.1C45.4,285.2,41,272.3,41,259V241c0-13.3,4.4-26.2,12.6-36.7
		c35-45.1,84.7-78.2,142-92.1c-45,18-84,49.1-113,89C74.4,212.4,70,226.2,70,240.4v19.2c0,14.2,4.4,28,12.6,39.3
		c25,34.4,57.5,62.3,94.8,80.8C202.2,387.7,228.6,392,256,392z M330.5,285c35.9,0,65-29.1,65-65s-29.1-65-65-65s-65,29.1-65,65
		S294.6,285,330.5,285z M116.5,220c0,35.9,29.1,65,65,65s65-29.1,65-65s-29.1-65-65-65S116.5,184.1,116.5,220z"/>
	<path class="st2" d="M286,320c0,14-13.2,25-30,25s-30-11-30-25c0-5.5,4.5-10,10-10s10,4.5,10,10c0,1.8,3.8,5,10,5
		c6.2,0,10-3.2,10-5c0-5.5,4.5-10,10-10S286,314.5,286,320z"/>
	<path class="st3" d="M385.5,220c0,30.4-24.6,55-55,55s-55-24.6-55-55c0-5.2,0.7-10.2,2.1-15h-43.2c1.4,4.8,2.1,9.8,2.1,15
		c0,30.4-24.6,55-55,55s-55-24.6-55-55s24.6-55,55-55c19.3,0,36.3,10,46.1,25h56.8c9.8-15,26.8-25,46.1-25
		C360.9,165,385.5,189.6,385.5,220z"/>
	<path class="st4" d="M221.5,220c0,22.1-17.9,40-40,40s-40-17.9-40-40s17.9-40,40-40S221.5,197.9,221.5,220z M330.5,180
		c-22.1,0-40,17.9-40,40s17.9,40,40,40s40-17.9,40-40S352.6,180,330.5,180z"/>
	<path class="st5" d="M221.5,220c0,20.2-15,36.9-34.4,39.6c9.6-9.1,15.8-23.4,15.8-39.6s-6.2-30.5-15.8-39.6
		C206.5,183.1,221.5,199.8,221.5,220z M336.1,180.4c9.6,9.1,15.8,23.4,15.8,39.6s-6.2,30.5-15.8,39.6c19.5-2.7,34.4-19.4,34.4-39.6
		S355.5,183.1,336.1,180.4z"/>
</g>
</svg>
